<svg xmlns="http://www.w3.org/2000/svg" xmlns:xlink="http://www.w3.org/1999/xlink" width="500" zoomAndPan="magnify" viewBox="0 0 375 374.999991" height="500" preserveAspectRatio="xMidYMid meet" version="1.0"><defs><clipPath id="0d9fcc277b"><path d="M 3.535156 60 L 316 60 L 316 315 L 3.535156 315 Z M 3.535156 60 " clip-rule="nonzero"/></clipPath><clipPath id="e64ed8a4b2"><path d="M 113 57.34375 L 371.785156 57.34375 L 371.785156 317.59375 L 113 317.59375 Z M 113 57.34375 " clip-rule="nonzero"/></clipPath></defs><g clip-path="url(#0d9fcc277b)"><path fill="#ea4242" d="M 3.582031 314.574219 L 32.511719 296.15625 C 32.867188 295.925781 65.96875 274.859375 93.101562 258.261719 C 115.648438 267.730469 141.324219 272.710938 167.644531 272.710938 C 249.03125 272.710938 315.234375 225.074219 315.234375 166.550781 C 315.234375 108.003906 249.03125 60.386719 167.644531 60.386719 C 86.28125 60.386719 20.082031 108.003906 20.082031 166.550781 C 20.082031 190.929688 31.550781 214.335938 52.515625 233.105469 L 3.582031 314.574219 " fill-opacity="1" fill-rule="nonzero"/></g><g clip-path="url(#e64ed8a4b2)"><path fill="#8c3dda" d="M 113.132812 185.496094 C 113.132812 256.273438 170.5 313.644531 241.28125 313.644531 C 266.574219 313.644531 290.152344 306.308594 310.019531 293.671875 L 352.234375 310.140625 L 371.40625 317.628906 L 367.96875 308.832031 L 347.710938 256.90625 C 361.429688 236.503906 369.441406 211.925781 369.441406 185.496094 C 369.441406 114.710938 312.0625 57.328125 241.28125 57.328125 C 170.5 57.328125 113.132812 114.710938 113.132812 185.496094 " fill-opacity="1" fill-rule="nonzero"/></g><path fill="#ffffff" d="M 205.703125 187.480469 C 205.703125 191.777344 202.21875 195.257812 197.917969 195.257812 C 193.625 195.257812 190.140625 191.777344 190.140625 187.480469 C 190.140625 183.183594 193.625 179.703125 197.917969 179.703125 C 202.21875 179.703125 205.703125 183.183594 205.703125 187.480469 " fill-opacity="1" fill-rule="nonzero"/><path fill="#ffffff" d="M 250.050781 187.480469 C 250.050781 191.777344 246.566406 195.257812 242.273438 195.257812 C 237.972656 195.257812 234.488281 191.777344 234.488281 187.480469 C 234.488281 183.183594 237.972656 179.703125 242.273438 179.703125 C 246.566406 179.703125 250.050781 183.183594 250.050781 187.480469 " fill-opacity="1" fill-rule="nonzero"/><path fill="#ffffff" d="M 294.398438 187.480469 C 294.398438 191.777344 290.917969 195.257812 286.621094 195.257812 C 282.320312 195.257812 278.835938 191.777344 278.835938 187.480469 C 278.835938 183.183594 282.320312 179.703125 286.621094 179.703125 C 290.917969 179.703125 294.398438 183.183594 294.398438 187.480469 " fill-opacity="1" fill-rule="nonzero"/></svg>