<svg xmlns="http://www.w3.org/2000/svg" xmlns:xlink="http://www.w3.org/1999/xlink" width="1328" zoomAndPan="magnify" viewBox="0 0 996 225" height="300" preserveAspectRatio="xMidYMid meet" version="1.0"><defs><g/><clipPath id="6c95d0c03f"><rect x="0" width="728" y="0" height="162"/></clipPath><clipPath id="4604ecf7a7"><path d="M 113 48.089844 L 241.308594 48.089844 L 241.308594 162 L 113 162 Z M 113 48.089844 " clip-rule="nonzero"/></clipPath><clipPath id="ab14f3aa08"><path d="M 6.558594 49 L 178 49 L 178 200.339844 L 6.558594 200.339844 Z M 6.558594 49 " clip-rule="nonzero"/></clipPath></defs><g transform="matrix(1, 0, 0, 1, 263, 24)"><g clip-path="url(#6c95d0c03f)"><g fill="#ffffff" fill-opacity="1"><g transform="translate(0.846637, 129.122881)"><g><path d="M 94.671875 -63.46875 L 73.78125 -63.46875 C 72.976562 -68.84375 70.6875 -73.0625 66.90625 -76.125 C 63.125 -79.195312 58.40625 -80.734375 52.75 -80.734375 C 45.175781 -80.734375 39.109375 -77.957031 34.546875 -72.40625 C 29.984375 -66.863281 27.703125 -59.003906 27.703125 -48.828125 C 27.703125 -38.398438 30 -30.476562 34.59375 -25.0625 C 39.1875 -19.644531 45.191406 -16.9375 52.609375 -16.9375 C 58.109375 -16.9375 62.765625 -18.375 66.578125 -21.25 C 70.390625 -24.125 72.789062 -28.171875 73.78125 -33.390625 L 94.671875 -33.28125 C 93.929688 -27.3125 91.796875 -21.6875 88.265625 -16.40625 C 84.742188 -11.125 79.953125 -6.847656 73.890625 -3.578125 C 67.835938 -0.304688 60.628906 1.328125 52.265625 1.328125 C 43.554688 1.328125 35.773438 -0.640625 28.921875 -4.578125 C 22.066406 -8.515625 16.660156 -14.21875 12.703125 -21.6875 C 8.742188 -29.164062 6.765625 -38.210938 6.765625 -48.828125 C 6.765625 -59.484375 8.769531 -68.546875 12.78125 -76.015625 C 16.789062 -83.484375 22.226562 -89.179688 29.09375 -93.109375 C 35.957031 -97.035156 43.679688 -99 52.265625 -99 C 59.804688 -99 66.601562 -97.609375 72.65625 -94.828125 C 78.707031 -92.046875 83.664062 -88.007812 87.53125 -82.71875 C 91.394531 -77.425781 93.773438 -71.007812 94.671875 -63.46875 Z M 94.671875 -63.46875 "/></g></g></g><g fill="#ffffff" fill-opacity="1"><g transform="translate(101.845167, 129.122881)"><g><path d="M 28.421875 -42.34375 L 28.421875 0 L 8.109375 0 L 8.109375 -97.671875 L 27.84375 -97.671875 L 27.84375 -60.328125 L 28.703125 -60.328125 C 30.390625 -64.648438 33.066406 -68.039062 36.734375 -70.5 C 40.410156 -72.96875 45.03125 -74.203125 50.59375 -74.203125 C 58.226562 -74.203125 64.363281 -71.753906 69 -66.859375 C 73.644531 -61.960938 75.953125 -55.222656 75.921875 -46.640625 L 75.921875 0 L 55.609375 0 L 55.609375 -43.015625 C 55.640625 -47.523438 54.5 -51.035156 52.1875 -53.546875 C 49.882812 -56.066406 46.671875 -57.328125 42.546875 -57.328125 C 38.410156 -57.328125 35.03125 -56.015625 32.40625 -53.390625 C 29.78125 -50.765625 28.453125 -47.082031 28.421875 -42.34375 Z M 28.421875 -42.34375 "/></g></g></g><g fill="#ffffff" fill-opacity="1"><g transform="translate(185.67681, 129.122881)"><g><path d="M 29 1.390625 C 22 1.390625 16.191406 -0.4375 11.578125 -4.09375 C 6.972656 -7.75 4.671875 -13.203125 4.671875 -20.453125 C 4.671875 -25.921875 5.957031 -30.210938 8.53125 -33.328125 C 11.113281 -36.453125 14.492188 -38.734375 18.671875 -40.171875 C 22.847656 -41.617188 27.351562 -42.566406 32.1875 -43.015625 C 38.550781 -43.648438 43.097656 -44.316406 45.828125 -45.015625 C 48.566406 -45.710938 49.9375 -47.238281 49.9375 -49.59375 L 49.9375 -49.890625 C 49.9375 -52.910156 48.988281 -55.242188 47.09375 -56.890625 C 45.195312 -58.546875 42.519531 -59.375 39.0625 -59.375 C 35.40625 -59.375 32.492188 -58.578125 30.328125 -56.984375 C 28.171875 -55.398438 26.742188 -53.382812 26.046875 -50.9375 L 7.25 -52.453125 C 8.644531 -59.128906 12.113281 -64.421875 17.65625 -68.328125 C 23.207031 -72.242188 30.375 -74.203125 39.15625 -74.203125 C 44.59375 -74.203125 49.675781 -73.34375 54.40625 -71.625 C 59.144531 -69.914062 62.96875 -67.238281 65.875 -63.59375 C 68.789062 -59.957031 70.25 -55.226562 70.25 -49.40625 L 70.25 0 L 50.984375 0 L 50.984375 -10.15625 L 50.40625 -10.15625 C 48.625 -6.757812 45.960938 -3.984375 42.421875 -1.828125 C 38.878906 0.316406 34.40625 1.390625 29 1.390625 Z M 34.8125 -12.640625 C 39.257812 -12.640625 42.914062 -13.929688 45.78125 -16.515625 C 48.644531 -19.109375 50.078125 -22.332031 50.078125 -26.1875 L 50.078125 -33.953125 C 49.285156 -33.410156 48.050781 -32.929688 46.375 -32.515625 C 44.707031 -32.109375 42.925781 -31.753906 41.03125 -31.453125 C 39.144531 -31.148438 37.453125 -30.890625 35.953125 -30.671875 C 32.398438 -30.160156 29.53125 -29.15625 27.34375 -27.65625 C 25.164062 -26.164062 24.078125 -23.988281 24.078125 -21.125 C 24.078125 -18.332031 25.085938 -16.21875 27.109375 -14.78125 C 29.128906 -13.351562 31.695312 -12.640625 34.8125 -12.640625 Z M 34.8125 -12.640625 "/></g></g></g><g fill="#ffffff" fill-opacity="1"><g transform="translate(263.595416, 129.122881)"><g><path d="M 47.078125 -73.25 L 47.078125 -57.984375 L 33.28125 -57.984375 L 33.28125 -22.515625 C 33.28125 -19.710938 33.914062 -17.816406 35.1875 -16.828125 C 36.46875 -15.847656 38.125 -15.359375 40.15625 -15.359375 C 41.113281 -15.359375 42.066406 -15.441406 43.015625 -15.609375 C 43.972656 -15.785156 44.703125 -15.925781 45.203125 -16.03125 L 48.40625 -0.90625 C 47.382812 -0.582031 45.953125 -0.207031 44.109375 0.21875 C 42.265625 0.644531 40.023438 0.90625 37.390625 1 C 30.015625 1.320312 24.09375 -0.269531 19.625 -3.78125 C 15.15625 -7.300781 12.9375 -12.65625 12.96875 -19.84375 L 12.96875 -57.984375 L 2.953125 -57.984375 L 2.953125 -73.25 L 12.96875 -73.25 L 12.96875 -90.796875 L 33.28125 -90.796875 L 33.28125 -73.25 Z M 47.078125 -73.25 "/></g></g></g><g fill="#ffffff" fill-opacity="1"><g transform="translate(315.763661, 129.122881)"><g><path d="M 61.46875 -69.578125 C 61.09375 -73.421875 59.445312 -76.40625 56.53125 -78.53125 C 53.625 -80.664062 49.707031 -81.734375 44.78125 -81.734375 C 39.726562 -81.734375 35.847656 -80.703125 33.140625 -78.640625 C 30.441406 -76.578125 29.09375 -73.972656 29.09375 -70.828125 C 29.03125 -67.328125 30.53125 -64.675781 33.59375 -62.875 C 36.664062 -61.082031 40.316406 -59.691406 44.546875 -58.703125 L 53.3125 -56.609375 C 58.976562 -55.335938 64.007812 -53.492188 68.40625 -51.078125 C 72.8125 -48.660156 76.273438 -45.550781 78.796875 -41.75 C 81.328125 -37.945312 82.59375 -33.332031 82.59375 -27.90625 C 82.5625 -18.96875 79.210938 -11.847656 72.546875 -6.546875 C 65.890625 -1.253906 56.601562 1.390625 44.6875 1.390625 C 32.820312 1.390625 23.359375 -1.3125 16.296875 -6.71875 C 9.242188 -12.125 5.59375 -20.109375 5.34375 -30.671875 L 25.328125 -30.671875 C 25.671875 -25.773438 27.597656 -22.09375 31.109375 -19.625 C 34.628906 -17.15625 39.078125 -15.921875 44.453125 -15.921875 C 49.691406 -15.921875 53.878906 -17.035156 57.015625 -19.265625 C 60.148438 -21.492188 61.734375 -24.390625 61.765625 -27.953125 C 61.734375 -31.253906 60.285156 -33.796875 57.421875 -35.578125 C 54.554688 -37.359375 50.46875 -38.882812 45.15625 -40.15625 L 34.53125 -42.828125 C 26.289062 -44.796875 19.785156 -47.925781 15.015625 -52.21875 C 10.253906 -56.507812 7.890625 -62.25 7.921875 -69.4375 C 7.890625 -75.351562 9.46875 -80.523438 12.65625 -84.953125 C 15.851562 -89.390625 20.25 -92.835938 25.84375 -95.296875 C 31.4375 -97.765625 37.796875 -99 44.921875 -99 C 52.171875 -99 58.503906 -97.757812 63.921875 -95.28125 C 69.347656 -92.800781 73.570312 -89.351562 76.59375 -84.9375 C 79.613281 -80.519531 81.171875 -75.398438 81.265625 -69.578125 Z M 61.46875 -69.578125 "/></g></g></g><g fill="#ffffff" fill-opacity="1"><g transform="translate(403.696283, 129.122881)"><g><path d="M 41.484375 1.4375 C 33.984375 1.4375 27.515625 -0.0976562 22.078125 -3.171875 C 16.640625 -6.242188 12.457031 -10.597656 9.53125 -16.234375 C 6.613281 -21.878906 5.15625 -28.566406 5.15625 -36.296875 C 5.15625 -43.828125 6.613281 -50.4375 9.53125 -56.125 C 12.457031 -61.820312 16.582031 -66.257812 21.90625 -69.4375 C 27.238281 -72.613281 33.5 -74.203125 40.6875 -74.203125 C 47.132812 -74.203125 52.957031 -72.832031 58.15625 -70.09375 C 63.351562 -67.363281 67.476562 -63.238281 70.53125 -57.71875 C 73.582031 -52.207031 75.109375 -45.304688 75.109375 -37.015625 L 75.109375 -31.421875 L 25.234375 -31.421875 L 25.234375 -31.375 C 25.234375 -25.90625 26.722656 -21.597656 29.703125 -18.453125 C 32.691406 -15.304688 36.734375 -13.734375 41.828125 -13.734375 C 45.222656 -13.734375 48.160156 -14.445312 50.640625 -15.875 C 53.128906 -17.3125 54.878906 -19.425781 55.890625 -22.21875 L 74.6875 -20.984375 C 73.25 -14.179688 69.617188 -8.742188 63.796875 -4.671875 C 57.984375 -0.597656 50.546875 1.4375 41.484375 1.4375 Z M 25.234375 -44.015625 L 55.984375 -44.015625 C 55.953125 -48.367188 54.550781 -51.960938 51.78125 -54.796875 C 49.019531 -57.628906 45.429688 -59.046875 41.015625 -59.046875 C 36.492188 -59.046875 32.785156 -57.582031 29.890625 -54.65625 C 27.003906 -51.726562 25.453125 -48.179688 25.234375 -44.015625 Z M 25.234375 -44.015625 "/></g></g></g><g fill="#ffffff" fill-opacity="1"><g transform="translate(483.951516, 129.122881)"><g><path d="M 28.421875 -97.671875 L 28.421875 0 L 8.109375 0 L 8.109375 -97.671875 Z M 28.421875 -97.671875 "/></g></g></g><g fill="#ffffff" fill-opacity="1"><g transform="translate(520.478826, 129.122881)"><g><path d="M 28.421875 -97.671875 L 28.421875 0 L 8.109375 0 L 8.109375 -97.671875 Z M 28.421875 -97.671875 "/></g></g></g><g fill="#ffffff" fill-opacity="1"><g transform="translate(557.006135, 129.122881)"><g><path d="M 41.484375 1.4375 C 33.984375 1.4375 27.515625 -0.0976562 22.078125 -3.171875 C 16.640625 -6.242188 12.457031 -10.597656 9.53125 -16.234375 C 6.613281 -21.878906 5.15625 -28.566406 5.15625 -36.296875 C 5.15625 -43.828125 6.613281 -50.4375 9.53125 -56.125 C 12.457031 -61.820312 16.582031 -66.257812 21.90625 -69.4375 C 27.238281 -72.613281 33.5 -74.203125 40.6875 -74.203125 C 47.132812 -74.203125 52.957031 -72.832031 58.15625 -70.09375 C 63.351562 -67.363281 67.476562 -63.238281 70.53125 -57.71875 C 73.582031 -52.207031 75.109375 -45.304688 75.109375 -37.015625 L 75.109375 -31.421875 L 25.234375 -31.421875 L 25.234375 -31.375 C 25.234375 -25.90625 26.722656 -21.597656 29.703125 -18.453125 C 32.691406 -15.304688 36.734375 -13.734375 41.828125 -13.734375 C 45.222656 -13.734375 48.160156 -14.445312 50.640625 -15.875 C 53.128906 -17.3125 54.878906 -19.425781 55.890625 -22.21875 L 74.6875 -20.984375 C 73.25 -14.179688 69.617188 -8.742188 63.796875 -4.671875 C 57.984375 -0.597656 50.546875 1.4375 41.484375 1.4375 Z M 25.234375 -44.015625 L 55.984375 -44.015625 C 55.953125 -48.367188 54.550781 -51.960938 51.78125 -54.796875 C 49.019531 -57.628906 45.429688 -59.046875 41.015625 -59.046875 C 36.492188 -59.046875 32.785156 -57.582031 29.890625 -54.65625 C 27.003906 -51.726562 25.453125 -48.179688 25.234375 -44.015625 Z M 25.234375 -44.015625 "/></g></g></g><g fill="#ffffff" fill-opacity="1"><g transform="translate(637.261368, 129.122881)"><g><path d="M 8.109375 0 L 8.109375 -73.25 L 27.796875 -73.25 L 27.796875 -60.46875 L 28.5625 -60.46875 C 29.894531 -65.019531 32.128906 -68.460938 35.265625 -70.796875 C 38.398438 -73.128906 42.035156 -74.296875 46.171875 -74.296875 C 48.140625 -74.296875 49.960938 -74.054688 51.640625 -73.578125 C 53.328125 -73.109375 54.835938 -72.457031 56.171875 -71.625 L 50.078125 -54.84375 C 49.117188 -55.320312 48.078125 -55.726562 46.953125 -56.0625 C 45.828125 -56.394531 44.5625 -56.5625 43.15625 -56.5625 C 39.0625 -56.5625 35.585938 -55.160156 32.734375 -52.359375 C 29.890625 -49.566406 28.453125 -45.925781 28.421875 -41.4375 L 28.421875 0 Z M 8.109375 0 "/></g></g></g><g fill="#ffffff" fill-opacity="1"><g transform="translate(686.424667, 129.122881)"><g><path d="M 19.984375 1.234375 C 16.835938 1.234375 14.132812 0.125 11.875 -2.09375 C 9.613281 -4.320312 8.5 -7.023438 8.53125 -10.203125 C 8.5 -13.316406 9.613281 -15.988281 11.875 -18.21875 C 14.132812 -20.445312 16.835938 -21.5625 19.984375 -21.5625 C 23.035156 -21.5625 25.695312 -20.445312 27.96875 -18.21875 C 30.238281 -15.988281 31.390625 -13.316406 31.421875 -10.203125 C 31.390625 -7.023438 30.238281 -4.320312 27.96875 -2.09375 C 25.695312 0.125 23.035156 1.234375 19.984375 1.234375 Z M 19.984375 1.234375 "/></g></g></g></g></g><g clip-path="url(#4604ecf7a7)"><path fill="#8c3dda" d="M 177.171875 48.417969 C 212.5625 48.417969 241.285156 71.277344 241.285156 99.496094 C 241.285156 111.488281 236.003906 122.152344 227.382812 131.253906 C 223.90625 134.914062 222.210938 140.144531 222.210938 145.585938 C 222.210938 151.78125 224.730469 157.414062 228.789062 161.472656 C 218.78125 159.910156 210.261719 153.816406 205.394531 145.359375 C 196.882812 148.691406 187.308594 150.566406 177.175781 150.566406 C 141.792969 150.566406 113.09375 127.691406 113.09375 99.496094 C 113.09375 71.277344 141.792969 48.417969 177.171875 48.417969 Z M 177.171875 48.417969 " fill-opacity="1" fill-rule="nonzero"/></g><g clip-path="url(#ab14f3aa08)"><path fill="#cc3750" d="M 91.890625 49.925781 C 44.765625 49.925781 6.558594 80.375 6.558594 117.917969 C 6.558594 133.910156 13.589844 148.085938 25.046875 160.207031 C 29.671875 165.097656 31.953125 172.046875 31.953125 179.300781 C 31.953125 187.546875 28.597656 195.027344 23.183594 200.445312 C 36.519531 198.359375 47.847656 190.25 54.339844 179.011719 C 65.675781 183.445312 78.40625 185.9375 91.890625 185.9375 C 139.027344 185.9375 177.238281 155.492188 177.238281 117.917969 C 177.238281 80.371094 139.027344 49.925781 91.890625 49.925781 Z M 91.890625 49.925781 " fill-opacity="1" fill-rule="nonzero"/></g><path fill="#bf447b" d="M 177.238281 117.917969 C 177.238281 93.425781 160.964844 71.957031 136.5625 59.988281 C 122.238281 69.355469 113.09375 83.570312 113.09375 99.496094 C 113.09375 124.984375 136.542969 146.125 167.1875 149.953125 C 173.585938 140.40625 177.238281 129.5 177.238281 117.917969 Z M 177.238281 117.917969 " fill-opacity="1" fill-rule="nonzero"/></svg>