<svg xmlns="http://www.w3.org/2000/svg" xmlns:xlink="http://www.w3.org/1999/xlink" width="996" zoomAndPan="magnify" viewBox="0 0 747 168.749997" height="225" preserveAspectRatio="xMidYMid meet" version="1.0"><defs><g/><clipPath id="e95819e0cc"><path d="M 2.050781 27 L 142 27 L 142 142 L 2.050781 142 Z M 2.050781 27 " clip-rule="nonzero"/></clipPath><clipPath id="a0cc3c1a03"><path d="M 51 26.011719 L 166.804688 26.011719 L 166.804688 142.839844 L 51 142.839844 Z M 51 26.011719 " clip-rule="nonzero"/></clipPath></defs><g clip-path="url(#e95819e0cc)"><path fill="#ea4242" d="M 2.082031 141.101562 L 15.023438 132.859375 C 15.183594 132.753906 29.992188 123.332031 42.132812 115.902344 C 52.21875 120.140625 63.707031 122.371094 75.484375 122.371094 C 111.894531 122.371094 141.515625 101.058594 141.515625 74.871094 C 141.515625 48.679688 111.894531 27.375 75.484375 27.375 C 39.082031 27.375 9.460938 48.679688 9.460938 74.871094 C 9.460938 85.78125 14.59375 96.25 23.972656 104.648438 L 2.082031 141.101562 " fill-opacity="1" fill-rule="nonzero"/></g><g clip-path="url(#a0cc3c1a03)"><path fill="#8c3dda" d="M 51.09375 83.347656 C 51.09375 115.015625 76.761719 140.683594 108.429688 140.683594 C 119.742188 140.683594 130.292969 137.402344 139.179688 131.746094 L 158.070312 139.117188 L 166.648438 142.46875 L 165.109375 138.53125 L 156.046875 115.296875 C 162.183594 106.171875 165.769531 95.175781 165.769531 83.347656 C 165.769531 51.679688 140.097656 26.007812 108.429688 26.007812 C 76.761719 26.007812 51.09375 51.679688 51.09375 83.347656 " fill-opacity="1" fill-rule="nonzero"/></g><path fill="#ffffff" d="M 92.511719 84.238281 C 92.511719 86.160156 90.953125 87.71875 89.027344 87.71875 C 87.105469 87.71875 85.546875 86.160156 85.546875 84.238281 C 85.546875 82.316406 87.105469 80.757812 89.027344 80.757812 C 90.953125 80.757812 92.511719 82.316406 92.511719 84.238281 " fill-opacity="1" fill-rule="nonzero"/><path fill="#ffffff" d="M 112.351562 84.238281 C 112.351562 86.160156 110.792969 87.71875 108.871094 87.71875 C 106.949219 87.71875 105.390625 86.160156 105.390625 84.238281 C 105.390625 82.316406 106.949219 80.757812 108.871094 80.757812 C 110.792969 80.757812 112.351562 82.316406 112.351562 84.238281 " fill-opacity="1" fill-rule="nonzero"/><path fill="#ffffff" d="M 132.195312 84.238281 C 132.195312 86.160156 130.636719 87.71875 128.710938 87.71875 C 126.789062 87.71875 125.230469 86.160156 125.230469 84.238281 C 125.230469 82.316406 126.789062 80.757812 128.710938 80.757812 C 130.636719 80.757812 132.195312 82.316406 132.195312 84.238281 " fill-opacity="1" fill-rule="nonzero"/><g fill="#ffffff" fill-opacity="1"><g transform="translate(171.538949, 120.698855)"><g><path d="M 42.6875 1.46875 C 35.238281 1.46875 28.632812 -0.160156 22.875 -3.421875 C 17.113281 -6.691406 12.613281 -11.207031 9.375 -16.96875 C 6.144531 -22.726562 4.53125 -29.367188 4.53125 -36.890625 C 4.53125 -44.410156 6.144531 -51.050781 9.375 -56.8125 C 12.613281 -62.570312 17.09375 -67.085938 22.8125 -70.359375 C 28.539062 -73.628906 35.128906 -75.265625 42.578125 -75.265625 C 48.835938 -75.265625 54.566406 -74.066406 59.765625 -71.671875 C 64.960938 -69.285156 69.335938 -65.910156 72.890625 -61.546875 C 76.441406 -57.191406 78.914062 -52.066406 80.3125 -46.171875 L 63.03125 -46.171875 C 61.625 -50.242188 59.128906 -53.457031 55.546875 -55.8125 C 51.960938 -58.164062 47.816406 -59.34375 43.109375 -59.34375 C 38.960938 -59.34375 35.253906 -58.394531 31.984375 -56.5 C 28.722656 -54.601562 26.175781 -51.96875 24.34375 -48.59375 C 22.519531 -45.21875 21.609375 -41.316406 21.609375 -36.890625 C 21.609375 -32.460938 22.519531 -28.5625 24.34375 -25.1875 C 26.175781 -21.8125 28.707031 -19.175781 31.9375 -17.28125 C 35.164062 -15.382812 38.851562 -14.4375 43 -14.4375 C 47.851562 -14.4375 52.101562 -15.679688 55.75 -18.171875 C 59.40625 -20.671875 62.007812 -24.03125 63.5625 -28.25 L 80.84375 -28.25 C 79.65625 -22.28125 77.265625 -17.0625 73.671875 -12.59375 C 70.085938 -8.132812 65.644531 -4.675781 60.34375 -2.21875 C 55.039062 0.238281 49.15625 1.46875 42.6875 1.46875 Z M 42.6875 1.46875 "/></g></g></g><g fill="#ffffff" fill-opacity="1"><g transform="translate(253.439315, 120.698855)"><g><path d="M 8.015625 0 L 8.015625 -78 L 24.03125 -78 L 24.03125 -51.125 C 26.132812 -53.019531 28.59375 -54.441406 31.40625 -55.390625 C 34.21875 -56.335938 37.171875 -56.8125 40.265625 -56.8125 C 47.429688 -56.8125 53.050781 -54.597656 57.125 -50.171875 C 61.207031 -45.742188 63.25 -39.664062 63.25 -31.9375 L 63.25 0 L 47.21875 0 L 47.21875 -30.359375 C 47.21875 -34.429688 46.25 -37.570312 44.3125 -39.78125 C 42.382812 -42 39.703125 -43.109375 36.265625 -43.109375 C 32.609375 -43.109375 29.65625 -41.859375 27.40625 -39.359375 C 25.15625 -36.867188 24.03125 -33.445312 24.03125 -29.09375 L 24.03125 0 Z M 8.015625 0 "/></g></g></g><g fill="#ffffff" fill-opacity="1"><g transform="translate(320.477401, 120.698855)"><g><path d="M 26.453125 1.046875 C 19.921875 1.046875 14.753906 -0.476562 10.953125 -3.53125 C 7.160156 -6.582031 5.265625 -10.78125 5.265625 -16.125 C 5.265625 -21.257812 6.96875 -25.351562 10.375 -28.40625 C 13.789062 -31.457031 18.378906 -32.984375 24.140625 -32.984375 L 44.171875 -32.984375 L 44.171875 -35.515625 C 44.171875 -38.253906 43.1875 -40.453125 41.21875 -42.109375 C 39.25 -43.765625 36.679688 -44.59375 33.515625 -44.59375 C 30.921875 -44.59375 28.707031 -43.992188 26.875 -42.796875 C 25.050781 -41.597656 23.894531 -40.015625 23.40625 -38.046875 L 8.015625 -38.046875 C 8.992188 -44.085938 11.710938 -48.722656 16.171875 -51.953125 C 20.640625 -55.191406 26.382812 -56.8125 33.40625 -56.8125 C 41.707031 -56.8125 48.191406 -54.71875 52.859375 -50.53125 C 57.535156 -46.351562 59.875 -40.613281 59.875 -33.3125 L 59.875 0 L 47.953125 0 L 46.171875 -6.4375 C 41.316406 -1.445312 34.742188 1.046875 26.453125 1.046875 Z M 21.078125 -16.765625 C 21.078125 -14.859375 21.898438 -13.328125 23.546875 -12.171875 C 25.203125 -11.015625 27.398438 -10.4375 30.140625 -10.4375 C 34.148438 -10.4375 37.472656 -11.59375 40.109375 -13.90625 C 42.742188 -16.226562 44.128906 -19.253906 44.265625 -22.984375 L 29.09375 -22.984375 C 26.707031 -22.984375 24.773438 -22.421875 23.296875 -21.296875 C 21.816406 -20.171875 21.078125 -18.660156 21.078125 -16.765625 Z M 21.078125 -16.765625 "/></g></g></g><g fill="#ffffff" fill-opacity="1"><g transform="translate(384.142486, 120.698855)"><g><path d="M 34.671875 0 C 27.648438 0 22.257812 -1.804688 18.5 -5.421875 C 14.738281 -9.046875 12.859375 -14.226562 12.859375 -20.96875 L 12.859375 -42.265625 L 2.109375 -42.265625 L 2.109375 -55.34375 L 7.0625 -55.34375 C 10.082031 -55.34375 12.132812 -55.832031 13.21875 -56.8125 C 14.3125 -57.800781 15.070312 -59.695312 15.5 -62.5 L 16.4375 -69.671875 L 28.875 -69.671875 L 28.875 -55.34375 L 44.0625 -55.34375 L 44.0625 -42.265625 L 28.875 -42.265625 L 28.875 -23.40625 C 28.875 -17.070312 31.96875 -13.90625 38.15625 -13.90625 L 44.796875 -13.90625 L 44.796875 0 Z M 34.671875 0 "/></g></g></g><g fill="#ffffff" fill-opacity="1"><g transform="translate(430.204736, 120.698855)"><g><path d="M 29.296875 1.46875 C 24.242188 1.46875 19.835938 0.660156 16.078125 -0.953125 C 12.316406 -2.566406 9.398438 -4.8125 7.328125 -7.6875 C 5.253906 -10.570312 4.21875 -13.945312 4.21875 -17.8125 L 19.921875 -17.8125 C 19.992188 -15.5625 20.875 -13.769531 22.5625 -12.4375 C 24.25 -11.101562 26.566406 -10.4375 29.515625 -10.4375 C 32.046875 -10.4375 34.015625 -10.910156 35.421875 -11.859375 C 36.828125 -12.804688 37.53125 -14.085938 37.53125 -15.703125 C 37.53125 -17.460938 36.578125 -18.921875 34.671875 -20.078125 C 32.773438 -21.234375 29.6875 -22.164062 25.40625 -22.875 C 18.375 -24.132812 13.207031 -26.171875 9.90625 -28.984375 C 6.601562 -31.796875 4.953125 -35.484375 4.953125 -40.046875 C 4.953125 -45.460938 6.972656 -49.609375 11.015625 -52.484375 C 15.054688 -55.367188 20.800781 -56.8125 28.25 -56.8125 C 35.625 -56.8125 41.398438 -55.226562 45.578125 -52.0625 C 49.765625 -48.90625 52.035156 -44.410156 52.390625 -38.578125 L 37.109375 -38.578125 C 36.960938 -40.679688 36.097656 -42.3125 34.515625 -43.46875 C 32.941406 -44.632812 30.816406 -45.21875 28.140625 -45.21875 C 25.753906 -45.21875 23.875 -44.757812 22.5 -43.84375 C 21.132812 -42.9375 20.453125 -41.671875 20.453125 -40.046875 C 20.453125 -38.367188 21.347656 -37.050781 23.140625 -36.09375 C 24.929688 -35.144531 28.179688 -34.179688 32.890625 -33.203125 C 46.515625 -30.460938 53.328125 -24.59375 53.328125 -15.59375 C 53.328125 -10.320312 51.203125 -6.160156 46.953125 -3.109375 C 42.703125 -0.0546875 36.816406 1.46875 29.296875 1.46875 Z M 29.296875 1.46875 "/></g></g></g><g fill="#ffffff" fill-opacity="1"><g transform="translate(484.699454, 120.698855)"><g><path d="M 34.15625 1.46875 C 28.25 1.46875 23.03125 0.238281 18.5 -2.21875 C 13.96875 -4.675781 10.4375 -8.097656 7.90625 -12.484375 C 5.375 -16.878906 4.109375 -21.957031 4.109375 -27.71875 C 4.109375 -33.476562 5.390625 -38.535156 7.953125 -42.890625 C 10.523438 -47.253906 14.078125 -50.664062 18.609375 -53.125 C 23.140625 -55.582031 28.390625 -56.8125 34.359375 -56.8125 C 40.679688 -56.8125 46.144531 -55.40625 50.75 -52.59375 C 55.351562 -49.78125 58.867188 -45.84375 61.296875 -40.78125 C 63.722656 -35.726562 64.757812 -29.828125 64.40625 -23.078125 L 20.03125 -23.078125 C 20.800781 -19.285156 22.484375 -16.390625 25.078125 -14.390625 C 27.679688 -12.390625 30.8125 -11.390625 34.46875 -11.390625 C 37.132812 -11.390625 39.570312 -11.894531 41.78125 -12.90625 C 44 -13.925781 45.773438 -15.351562 47.109375 -17.1875 L 63.34375 -17.1875 C 60.957031 -11.351562 57.195312 -6.785156 52.0625 -3.484375 C 46.9375 -0.179688 40.96875 1.46875 34.15625 1.46875 Z M 20.125 -33.203125 L 48.90625 -33.203125 C 47.988281 -36.578125 46.28125 -39.226562 43.78125 -41.15625 C 41.289062 -43.09375 38.1875 -44.0625 34.46875 -44.0625 C 30.957031 -44.0625 27.914062 -43.09375 25.34375 -41.15625 C 22.78125 -39.226562 21.039062 -36.578125 20.125 -33.203125 Z M 20.125 -33.203125 "/></g></g></g><g fill="#ffffff" fill-opacity="1"><g transform="translate(549.945647, 120.698855)"><g><path d="M 8.015625 0 L 8.015625 -78 L 24.03125 -78 L 24.03125 0 Z M 8.015625 0 "/></g></g></g><g fill="#ffffff" fill-opacity="1"><g transform="translate(578.826679, 120.698855)"><g><path d="M 8.015625 0 L 8.015625 -78 L 24.03125 -78 L 24.03125 0 Z M 8.015625 0 "/></g></g></g><g fill="#ffffff" fill-opacity="1"><g transform="translate(607.707687, 120.698855)"><g><path d="M 34.15625 1.46875 C 28.25 1.46875 23.03125 0.238281 18.5 -2.21875 C 13.96875 -4.675781 10.4375 -8.097656 7.90625 -12.484375 C 5.375 -16.878906 4.109375 -21.957031 4.109375 -27.71875 C 4.109375 -33.476562 5.390625 -38.535156 7.953125 -42.890625 C 10.523438 -47.253906 14.078125 -50.664062 18.609375 -53.125 C 23.140625 -55.582031 28.390625 -56.8125 34.359375 -56.8125 C 40.679688 -56.8125 46.144531 -55.40625 50.75 -52.59375 C 55.351562 -49.78125 58.867188 -45.84375 61.296875 -40.78125 C 63.722656 -35.726562 64.757812 -29.828125 64.40625 -23.078125 L 20.03125 -23.078125 C 20.800781 -19.285156 22.484375 -16.390625 25.078125 -14.390625 C 27.679688 -12.390625 30.8125 -11.390625 34.46875 -11.390625 C 37.132812 -11.390625 39.570312 -11.894531 41.78125 -12.90625 C 44 -13.925781 45.773438 -15.351562 47.109375 -17.1875 L 63.34375 -17.1875 C 60.957031 -11.351562 57.195312 -6.785156 52.0625 -3.484375 C 46.9375 -0.179688 40.96875 1.46875 34.15625 1.46875 Z M 20.125 -33.203125 L 48.90625 -33.203125 C 47.988281 -36.578125 46.28125 -39.226562 43.78125 -41.15625 C 41.289062 -43.09375 38.1875 -44.0625 34.46875 -44.0625 C 30.957031 -44.0625 27.914062 -43.09375 25.34375 -41.15625 C 22.78125 -39.226562 21.039062 -36.578125 20.125 -33.203125 Z M 20.125 -33.203125 "/></g></g></g><g fill="#ffffff" fill-opacity="1"><g transform="translate(672.953857, 120.698855)"><g><path d="M 8.015625 0 L 8.015625 -55.34375 L 19.921875 -55.34375 L 22.03125 -47.953125 C 23.851562 -50.554688 26.097656 -52.4375 28.765625 -53.59375 C 31.441406 -54.757812 34.816406 -55.34375 38.890625 -55.34375 L 44.90625 -55.34375 L 44.90625 -40.796875 L 38.796875 -40.796875 C 34.222656 -40.796875 30.617188 -39.5625 27.984375 -37.09375 C 25.347656 -34.632812 24.03125 -30.421875 24.03125 -24.453125 L 24.03125 0 Z M 8.015625 0 "/></g></g></g><g fill="#ea4242" fill-opacity="1"><g transform="translate(718.287515, 120.698855)"><g><path d="M 14.125 1.15625 C 11.238281 1.15625 8.882812 0.257812 7.0625 -1.53125 C 5.238281 -3.320312 4.328125 -5.585938 4.328125 -8.328125 C 4.328125 -11.066406 5.238281 -13.347656 7.0625 -15.171875 C 8.882812 -17.003906 11.238281 -17.921875 14.125 -17.921875 C 17.007812 -17.921875 19.363281 -17.003906 21.1875 -15.171875 C 23.007812 -13.347656 23.921875 -11.066406 23.921875 -8.328125 C 23.921875 -5.585938 23.007812 -3.320312 21.1875 -1.53125 C 19.363281 0.257812 17.007812 1.15625 14.125 1.15625 Z M 14.125 1.15625 "/></g></g></g></svg>