<svg xmlns="http://www.w3.org/2000/svg" xmlns:xlink="http://www.w3.org/1999/xlink" width="500" zoomAndPan="magnify" viewBox="0 0 375 374.999991" height="500" preserveAspectRatio="xMidYMid meet" version="1.0"><defs><g/><clipPath id="6578799a1e"><path d="M 171 74.070312 L 361.742188 74.070312 L 361.742188 243 L 171 243 Z M 171 74.070312 " clip-rule="nonzero"/></clipPath><clipPath id="4e88533ade"><path d="M 12.992188 76 L 267 76 L 267 300.570312 L 12.992188 300.570312 Z M 12.992188 76 " clip-rule="nonzero"/></clipPath><clipPath id="25688e1ba6"><path d="M 0.199219 1 L 33.558594 1 L 33.558594 3.679688 L 0.199219 3.679688 Z M 0.199219 1 " clip-rule="nonzero"/></clipPath><clipPath id="ec51e66aa2"><rect x="0" width="34" y="0" height="4"/></clipPath></defs><g clip-path="url(#6578799a1e)"><path fill="#8c3dda" d="M 266.675781 74.5625 C 319.292969 74.5625 362 108.554688 362 150.507812 C 362 168.339844 354.148438 184.199219 341.332031 197.730469 C 336.164062 203.167969 333.644531 210.945312 333.644531 219.035156 C 333.644531 228.25 337.390625 236.628906 343.421875 242.660156 C 328.542969 240.339844 315.871094 231.277344 308.636719 218.703125 C 295.984375 223.65625 281.746094 226.445312 266.679688 226.445312 C 214.074219 226.445312 171.398438 192.429688 171.398438 150.511719 C 171.398438 108.550781 214.074219 74.5625 266.675781 74.5625 Z M 266.675781 74.5625 " fill-opacity="1" fill-rule="nonzero"/></g><g clip-path="url(#4e88533ade)"><path fill="#cc3750" d="M 139.871094 76.804688 C 69.804688 76.804688 12.992188 122.078125 12.992188 177.902344 C 12.992188 201.675781 23.445312 222.753906 40.488281 240.777344 C 47.363281 248.050781 50.753906 258.382812 50.753906 269.167969 C 50.753906 281.429688 45.765625 292.550781 37.714844 300.605469 C 57.539062 297.503906 74.386719 285.449219 84.039062 268.742188 C 100.894531 275.328125 119.824219 279.035156 139.871094 279.035156 C 209.957031 279.035156 266.773438 233.765625 266.773438 177.902344 C 266.773438 122.074219 209.957031 76.804688 139.871094 76.804688 Z M 139.871094 76.804688 " fill-opacity="1" fill-rule="nonzero"/></g><path fill="#cc377a" d="M 266.773438 177.902344 C 266.773438 141.480469 242.574219 109.5625 206.292969 91.765625 C 184.996094 105.691406 171.398438 126.832031 171.398438 150.511719 C 171.398438 188.410156 206.265625 219.839844 251.828125 225.53125 C 261.34375 211.335938 266.773438 195.121094 266.773438 177.902344 Z M 266.773438 177.902344 " fill-opacity="1" fill-rule="nonzero"/><g transform="matrix(1, 0, 0, 1, 37, 166)"><g clip-path="url(#ec51e66aa2)"><g clip-path="url(#25688e1ba6)"><g fill="#cc3750" fill-opacity="1"><g transform="translate(0.428858, 2.924086)"><g><path d="M 0.953125 0 L 0.796875 -0.390625 L 0.296875 -0.390625 L 0.140625 0 L 0 0 L 0.5 -1.25 L 0.609375 -1.25 L 1.109375 0 Z M 0.75 -0.53125 L 0.609375 -0.921875 C 0.585938 -0.960938 0.566406 -1.019531 0.546875 -1.09375 C 0.535156 -1.039062 0.519531 -0.984375 0.5 -0.921875 L 0.359375 -0.53125 Z M 0.75 -0.53125 "/></g></g><g transform="translate(1.535643, 2.924086)"><g><path d="M 0.03125 0.421875 C -0.0195312 0.421875 -0.0625 0.414062 -0.09375 0.40625 L -0.09375 0.28125 C -0.0507812 0.289062 -0.015625 0.296875 0.015625 0.296875 C 0.0664062 0.296875 0.101562 0.285156 0.125 0.265625 C 0.144531 0.242188 0.15625 0.207031 0.15625 0.15625 L 0.15625 -0.9375 L 0.296875 -0.9375 L 0.296875 0.140625 C 0.296875 0.328125 0.207031 0.421875 0.03125 0.421875 Z M 0.140625 -1.1875 C 0.140625 -1.21875 0.144531 -1.238281 0.15625 -1.25 C 0.175781 -1.269531 0.195312 -1.28125 0.21875 -1.28125 C 0.238281 -1.28125 0.257812 -1.269531 0.28125 -1.25 C 0.300781 -1.238281 0.3125 -1.21875 0.3125 -1.1875 C 0.3125 -1.15625 0.300781 -1.128906 0.28125 -1.109375 C 0.257812 -1.097656 0.238281 -1.09375 0.21875 -1.09375 C 0.195312 -1.09375 0.175781 -1.097656 0.15625 -1.109375 C 0.144531 -1.128906 0.140625 -1.15625 0.140625 -1.1875 Z M 0.140625 -1.1875 "/></g></g><g transform="translate(1.978016, 2.924086)"><g><path d="M 0.953125 -0.46875 C 0.953125 -0.3125 0.914062 -0.191406 0.84375 -0.109375 C 0.769531 -0.0234375 0.664062 0.015625 0.53125 0.015625 C 0.445312 0.015625 0.367188 0 0.296875 -0.03125 C 0.234375 -0.0703125 0.179688 -0.128906 0.140625 -0.203125 C 0.109375 -0.285156 0.09375 -0.375 0.09375 -0.46875 C 0.09375 -0.625 0.128906 -0.742188 0.203125 -0.828125 C 0.285156 -0.910156 0.394531 -0.953125 0.53125 -0.953125 C 0.664062 -0.953125 0.769531 -0.90625 0.84375 -0.8125 C 0.914062 -0.726562 0.953125 -0.613281 0.953125 -0.46875 Z M 0.25 -0.46875 C 0.25 -0.351562 0.269531 -0.265625 0.3125 -0.203125 C 0.363281 -0.140625 0.4375 -0.109375 0.53125 -0.109375 C 0.625 -0.109375 0.691406 -0.132812 0.734375 -0.1875 C 0.785156 -0.25 0.8125 -0.34375 0.8125 -0.46875 C 0.8125 -0.582031 0.785156 -0.671875 0.734375 -0.734375 C 0.691406 -0.796875 0.625 -0.828125 0.53125 -0.828125 C 0.4375 -0.828125 0.363281 -0.796875 0.3125 -0.734375 C 0.269531 -0.679688 0.25 -0.59375 0.25 -0.46875 Z M 0.25 -0.46875 "/></g></g><g transform="translate(3.034415, 2.924086)"><g><path d="M 0.28125 -0.9375 L 0.28125 -0.328125 C 0.28125 -0.253906 0.296875 -0.195312 0.328125 -0.15625 C 0.367188 -0.125 0.425781 -0.109375 0.5 -0.109375 C 0.59375 -0.109375 0.660156 -0.132812 0.703125 -0.1875 C 0.753906 -0.238281 0.78125 -0.320312 0.78125 -0.4375 L 0.78125 -0.9375 L 0.921875 -0.9375 L 0.921875 0 L 0.8125 0 L 0.78125 -0.125 C 0.75 -0.0820312 0.707031 -0.046875 0.65625 -0.015625 C 0.601562 0.00390625 0.546875 0.015625 0.484375 0.015625 C 0.367188 0.015625 0.28125 -0.0078125 0.21875 -0.0625 C 0.164062 -0.113281 0.140625 -0.203125 0.140625 -0.328125 L 0.140625 -0.9375 Z M 0.28125 -0.9375 "/></g></g><g transform="translate(4.107894, 2.924086)"><g><path d="M 0.453125 -0.09375 C 0.472656 -0.09375 0.492188 -0.09375 0.515625 -0.09375 C 0.546875 -0.101562 0.566406 -0.109375 0.578125 -0.109375 L 0.578125 -0.015625 C 0.566406 -0.00390625 0.546875 0 0.515625 0 C 0.484375 0.0078125 0.457031 0.015625 0.4375 0.015625 C 0.25 0.015625 0.15625 -0.078125 0.15625 -0.265625 L 0.15625 -0.828125 L 0.03125 -0.828125 L 0.03125 -0.890625 L 0.15625 -0.953125 L 0.21875 -1.15625 L 0.296875 -1.15625 L 0.296875 -0.9375 L 0.578125 -0.9375 L 0.578125 -0.828125 L 0.296875 -0.828125 L 0.296875 -0.28125 C 0.296875 -0.21875 0.3125 -0.171875 0.34375 -0.140625 C 0.375 -0.109375 0.410156 -0.09375 0.453125 -0.09375 Z M 0.453125 -0.09375 "/></g></g><g transform="translate(4.725337, 2.924086)"><g><path d="M 0.546875 0.015625 C 0.410156 0.015625 0.300781 -0.0234375 0.21875 -0.109375 C 0.132812 -0.191406 0.09375 -0.304688 0.09375 -0.453125 C 0.09375 -0.609375 0.128906 -0.726562 0.203125 -0.8125 C 0.285156 -0.90625 0.390625 -0.953125 0.515625 -0.953125 C 0.628906 -0.953125 0.71875 -0.910156 0.78125 -0.828125 C 0.851562 -0.753906 0.890625 -0.65625 0.890625 -0.53125 L 0.890625 -0.4375 L 0.25 -0.4375 C 0.25 -0.332031 0.273438 -0.25 0.328125 -0.1875 C 0.378906 -0.132812 0.453125 -0.109375 0.546875 -0.109375 C 0.648438 -0.109375 0.75 -0.128906 0.84375 -0.171875 L 0.84375 -0.046875 C 0.800781 -0.0234375 0.753906 -0.0078125 0.703125 0 C 0.660156 0.0078125 0.609375 0.015625 0.546875 0.015625 Z M 0.5 -0.828125 C 0.425781 -0.828125 0.367188 -0.800781 0.328125 -0.75 C 0.285156 -0.707031 0.257812 -0.644531 0.25 -0.5625 L 0.734375 -0.5625 C 0.734375 -0.644531 0.710938 -0.707031 0.671875 -0.75 C 0.640625 -0.800781 0.582031 -0.828125 0.5 -0.828125 Z M 0.5 -0.828125 "/></g></g><g transform="translate(5.706584, 2.924086)"><g><path d="M 0.578125 -0.953125 C 0.617188 -0.953125 0.65625 -0.945312 0.6875 -0.9375 L 0.671875 -0.8125 C 0.628906 -0.820312 0.59375 -0.828125 0.5625 -0.828125 C 0.488281 -0.828125 0.425781 -0.796875 0.375 -0.734375 C 0.320312 -0.671875 0.296875 -0.59375 0.296875 -0.5 L 0.296875 0 L 0.15625 0 L 0.15625 -0.9375 L 0.265625 -0.9375 L 0.28125 -0.765625 L 0.296875 -0.765625 C 0.328125 -0.828125 0.363281 -0.875 0.40625 -0.90625 C 0.457031 -0.9375 0.515625 -0.953125 0.578125 -0.953125 Z M 0.578125 -0.953125 "/></g></g><g transform="translate(6.420529, 2.924086)"><g/></g><g transform="translate(6.874857, 2.924086)"><g><path d="M 0.78125 -0.125 C 0.71875 -0.03125 0.617188 0.015625 0.484375 0.015625 C 0.359375 0.015625 0.257812 -0.0234375 0.1875 -0.109375 C 0.125 -0.191406 0.09375 -0.3125 0.09375 -0.46875 C 0.09375 -0.625 0.125 -0.742188 0.1875 -0.828125 C 0.257812 -0.910156 0.359375 -0.953125 0.484375 -0.953125 C 0.609375 -0.953125 0.707031 -0.90625 0.78125 -0.8125 L 0.796875 -0.8125 L 0.78125 -0.875 L 0.78125 -1.328125 L 0.921875 -1.328125 L 0.921875 0 L 0.8125 0 Z M 0.5 -0.109375 C 0.601562 -0.109375 0.675781 -0.132812 0.71875 -0.1875 C 0.757812 -0.238281 0.78125 -0.320312 0.78125 -0.4375 L 0.78125 -0.46875 C 0.78125 -0.601562 0.753906 -0.695312 0.703125 -0.75 C 0.660156 -0.800781 0.59375 -0.828125 0.5 -0.828125 C 0.414062 -0.828125 0.351562 -0.796875 0.3125 -0.734375 C 0.269531 -0.671875 0.25 -0.582031 0.25 -0.46875 C 0.25 -0.34375 0.269531 -0.25 0.3125 -0.1875 C 0.351562 -0.132812 0.414062 -0.109375 0.5 -0.109375 Z M 0.5 -0.109375 "/></g></g><g transform="translate(7.946629, 2.924086)"><g><path d="M 0.546875 0.015625 C 0.410156 0.015625 0.300781 -0.0234375 0.21875 -0.109375 C 0.132812 -0.191406 0.09375 -0.304688 0.09375 -0.453125 C 0.09375 -0.609375 0.128906 -0.726562 0.203125 -0.8125 C 0.285156 -0.90625 0.390625 -0.953125 0.515625 -0.953125 C 0.628906 -0.953125 0.71875 -0.910156 0.78125 -0.828125 C 0.851562 -0.753906 0.890625 -0.65625 0.890625 -0.53125 L 0.890625 -0.4375 L 0.25 -0.4375 C 0.25 -0.332031 0.273438 -0.25 0.328125 -0.1875 C 0.378906 -0.132812 0.453125 -0.109375 0.546875 -0.109375 C 0.648438 -0.109375 0.75 -0.128906 0.84375 -0.171875 L 0.84375 -0.046875 C 0.800781 -0.0234375 0.753906 -0.0078125 0.703125 0 C 0.660156 0.0078125 0.609375 0.015625 0.546875 0.015625 Z M 0.5 -0.828125 C 0.425781 -0.828125 0.367188 -0.800781 0.328125 -0.75 C 0.285156 -0.707031 0.257812 -0.644531 0.25 -0.5625 L 0.734375 -0.5625 C 0.734375 -0.644531 0.710938 -0.707031 0.671875 -0.75 C 0.640625 -0.800781 0.582031 -0.828125 0.5 -0.828125 Z M 0.5 -0.828125 "/></g></g><g transform="translate(8.927876, 2.924086)"><g><path d="M 0.75 -0.25 C 0.75 -0.164062 0.71875 -0.0976562 0.65625 -0.046875 C 0.59375 -0.00390625 0.503906 0.015625 0.390625 0.015625 C 0.265625 0.015625 0.164062 -0.00390625 0.09375 -0.046875 L 0.09375 -0.171875 C 0.132812 -0.148438 0.179688 -0.128906 0.234375 -0.109375 C 0.285156 -0.0976562 0.335938 -0.09375 0.390625 -0.09375 C 0.460938 -0.09375 0.519531 -0.101562 0.5625 -0.125 C 0.601562 -0.15625 0.625 -0.195312 0.625 -0.25 C 0.625 -0.28125 0.601562 -0.304688 0.5625 -0.328125 C 0.53125 -0.359375 0.472656 -0.390625 0.390625 -0.421875 C 0.296875 -0.460938 0.226562 -0.492188 0.1875 -0.515625 C 0.15625 -0.535156 0.128906 -0.5625 0.109375 -0.59375 C 0.0976562 -0.625 0.09375 -0.660156 0.09375 -0.703125 C 0.09375 -0.785156 0.125 -0.847656 0.1875 -0.890625 C 0.25 -0.929688 0.332031 -0.953125 0.4375 -0.953125 C 0.539062 -0.953125 0.640625 -0.929688 0.734375 -0.890625 L 0.6875 -0.78125 C 0.59375 -0.8125 0.503906 -0.828125 0.421875 -0.828125 C 0.359375 -0.828125 0.304688 -0.816406 0.265625 -0.796875 C 0.234375 -0.773438 0.21875 -0.75 0.21875 -0.71875 C 0.21875 -0.6875 0.222656 -0.660156 0.234375 -0.640625 C 0.253906 -0.628906 0.273438 -0.613281 0.296875 -0.59375 C 0.328125 -0.582031 0.382812 -0.5625 0.46875 -0.53125 C 0.582031 -0.488281 0.65625 -0.445312 0.6875 -0.40625 C 0.726562 -0.363281 0.75 -0.3125 0.75 -0.25 Z M 0.75 -0.25 "/></g></g><g transform="translate(9.762235, 2.924086)"><g/></g><g transform="translate(10.216563, 2.924086)"><g><path d="M 0.296875 0 L 0.15625 0 L 0.15625 -1.328125 L 0.296875 -1.328125 Z M 0.296875 0 "/></g></g><g transform="translate(10.658936, 2.924086)"><g><path d="M 0.296875 0 L 0.15625 0 L 0.15625 -0.9375 L 0.296875 -0.9375 Z M 0.140625 -1.1875 C 0.140625 -1.21875 0.144531 -1.238281 0.15625 -1.25 C 0.175781 -1.269531 0.195312 -1.28125 0.21875 -1.28125 C 0.238281 -1.28125 0.257812 -1.269531 0.28125 -1.25 C 0.300781 -1.238281 0.3125 -1.21875 0.3125 -1.1875 C 0.3125 -1.15625 0.300781 -1.128906 0.28125 -1.109375 C 0.257812 -1.097656 0.238281 -1.09375 0.21875 -1.09375 C 0.195312 -1.09375 0.175781 -1.097656 0.15625 -1.109375 C 0.144531 -1.128906 0.140625 -1.15625 0.140625 -1.1875 Z M 0.140625 -1.1875 "/></g></g><g transform="translate(11.101308, 2.924086)"><g><path d="M 0.921875 -0.9375 L 0.921875 -0.84375 L 0.75 -0.828125 C 0.757812 -0.804688 0.769531 -0.78125 0.78125 -0.75 C 0.800781 -0.71875 0.8125 -0.679688 0.8125 -0.640625 C 0.8125 -0.546875 0.773438 -0.472656 0.703125 -0.421875 C 0.640625 -0.367188 0.554688 -0.34375 0.453125 -0.34375 C 0.421875 -0.34375 0.394531 -0.34375 0.375 -0.34375 C 0.3125 -0.3125 0.28125 -0.269531 0.28125 -0.21875 C 0.28125 -0.195312 0.289062 -0.179688 0.3125 -0.171875 C 0.332031 -0.160156 0.367188 -0.15625 0.421875 -0.15625 L 0.59375 -0.15625 C 0.6875 -0.15625 0.757812 -0.128906 0.8125 -0.078125 C 0.875 -0.0351562 0.90625 0.0234375 0.90625 0.109375 C 0.90625 0.203125 0.863281 0.273438 0.78125 0.328125 C 0.695312 0.390625 0.578125 0.421875 0.421875 0.421875 C 0.296875 0.421875 0.195312 0.394531 0.125 0.34375 C 0.0625 0.300781 0.03125 0.238281 0.03125 0.15625 C 0.03125 0.101562 0.046875 0.0546875 0.078125 0.015625 C 0.117188 -0.0234375 0.171875 -0.0546875 0.234375 -0.078125 C 0.210938 -0.0859375 0.191406 -0.101562 0.171875 -0.125 C 0.160156 -0.144531 0.15625 -0.171875 0.15625 -0.203125 C 0.15625 -0.234375 0.164062 -0.257812 0.1875 -0.28125 C 0.207031 -0.3125 0.234375 -0.34375 0.265625 -0.375 C 0.222656 -0.382812 0.1875 -0.414062 0.15625 -0.46875 C 0.125 -0.519531 0.109375 -0.578125 0.109375 -0.640625 C 0.109375 -0.734375 0.140625 -0.804688 0.203125 -0.859375 C 0.265625 -0.921875 0.347656 -0.953125 0.453125 -0.953125 C 0.503906 -0.953125 0.550781 -0.945312 0.59375 -0.9375 Z M 0.171875 0.15625 C 0.171875 0.207031 0.191406 0.242188 0.234375 0.265625 C 0.273438 0.296875 0.335938 0.3125 0.421875 0.3125 C 0.535156 0.3125 0.617188 0.289062 0.671875 0.25 C 0.734375 0.21875 0.765625 0.171875 0.765625 0.109375 C 0.765625 0.0546875 0.75 0.0195312 0.71875 0 C 0.6875 -0.0078125 0.628906 -0.015625 0.546875 -0.015625 L 0.375 -0.015625 C 0.3125 -0.015625 0.257812 0 0.21875 0.03125 C 0.1875 0.0625 0.171875 0.101562 0.171875 0.15625 Z M 0.25 -0.640625 C 0.25 -0.566406 0.265625 -0.515625 0.296875 -0.484375 C 0.335938 -0.453125 0.390625 -0.4375 0.453125 -0.4375 C 0.597656 -0.4375 0.671875 -0.503906 0.671875 -0.640625 C 0.671875 -0.773438 0.597656 -0.84375 0.453125 -0.84375 C 0.390625 -0.84375 0.335938 -0.828125 0.296875 -0.796875 C 0.265625 -0.765625 0.25 -0.710938 0.25 -0.640625 Z M 0.25 -0.640625 "/></g></g><g transform="translate(12.059497, 2.924086)"><g><path d="M 0.796875 0 L 0.796875 -0.609375 C 0.796875 -0.679688 0.773438 -0.734375 0.734375 -0.765625 C 0.703125 -0.804688 0.648438 -0.828125 0.578125 -0.828125 C 0.472656 -0.828125 0.398438 -0.800781 0.359375 -0.75 C 0.316406 -0.695312 0.296875 -0.609375 0.296875 -0.484375 L 0.296875 0 L 0.15625 0 L 0.15625 -0.9375 L 0.265625 -0.9375 L 0.28125 -0.8125 L 0.296875 -0.8125 C 0.328125 -0.851562 0.367188 -0.882812 0.421875 -0.90625 C 0.472656 -0.9375 0.53125 -0.953125 0.59375 -0.953125 C 0.707031 -0.953125 0.789062 -0.925781 0.84375 -0.875 C 0.90625 -0.820312 0.9375 -0.734375 0.9375 -0.609375 L 0.9375 0 Z M 0.796875 0 "/></g></g><g transform="translate(13.132977, 2.924086)"><g><path d="M 0.546875 0.015625 C 0.410156 0.015625 0.300781 -0.0234375 0.21875 -0.109375 C 0.132812 -0.191406 0.09375 -0.304688 0.09375 -0.453125 C 0.09375 -0.609375 0.128906 -0.726562 0.203125 -0.8125 C 0.285156 -0.90625 0.390625 -0.953125 0.515625 -0.953125 C 0.628906 -0.953125 0.71875 -0.910156 0.78125 -0.828125 C 0.851562 -0.753906 0.890625 -0.65625 0.890625 -0.53125 L 0.890625 -0.4375 L 0.25 -0.4375 C 0.25 -0.332031 0.273438 -0.25 0.328125 -0.1875 C 0.378906 -0.132812 0.453125 -0.109375 0.546875 -0.109375 C 0.648438 -0.109375 0.75 -0.128906 0.84375 -0.171875 L 0.84375 -0.046875 C 0.800781 -0.0234375 0.753906 -0.0078125 0.703125 0 C 0.660156 0.0078125 0.609375 0.015625 0.546875 0.015625 Z M 0.5 -0.828125 C 0.425781 -0.828125 0.367188 -0.800781 0.328125 -0.75 C 0.285156 -0.707031 0.257812 -0.644531 0.25 -0.5625 L 0.734375 -0.5625 C 0.734375 -0.644531 0.710938 -0.707031 0.671875 -0.75 C 0.640625 -0.800781 0.582031 -0.828125 0.5 -0.828125 Z M 0.5 -0.828125 "/></g></g><g transform="translate(14.114224, 2.924086)"><g><path d="M 0.75 -0.25 C 0.75 -0.164062 0.71875 -0.0976562 0.65625 -0.046875 C 0.59375 -0.00390625 0.503906 0.015625 0.390625 0.015625 C 0.265625 0.015625 0.164062 -0.00390625 0.09375 -0.046875 L 0.09375 -0.171875 C 0.132812 -0.148438 0.179688 -0.128906 0.234375 -0.109375 C 0.285156 -0.0976562 0.335938 -0.09375 0.390625 -0.09375 C 0.460938 -0.09375 0.519531 -0.101562 0.5625 -0.125 C 0.601562 -0.15625 0.625 -0.195312 0.625 -0.25 C 0.625 -0.28125 0.601562 -0.304688 0.5625 -0.328125 C 0.53125 -0.359375 0.472656 -0.390625 0.390625 -0.421875 C 0.296875 -0.460938 0.226562 -0.492188 0.1875 -0.515625 C 0.15625 -0.535156 0.128906 -0.5625 0.109375 -0.59375 C 0.0976562 -0.625 0.09375 -0.660156 0.09375 -0.703125 C 0.09375 -0.785156 0.125 -0.847656 0.1875 -0.890625 C 0.25 -0.929688 0.332031 -0.953125 0.4375 -0.953125 C 0.539062 -0.953125 0.640625 -0.929688 0.734375 -0.890625 L 0.6875 -0.78125 C 0.59375 -0.8125 0.503906 -0.828125 0.421875 -0.828125 C 0.359375 -0.828125 0.304688 -0.816406 0.265625 -0.796875 C 0.234375 -0.773438 0.21875 -0.75 0.21875 -0.71875 C 0.21875 -0.6875 0.222656 -0.660156 0.234375 -0.640625 C 0.253906 -0.628906 0.273438 -0.613281 0.296875 -0.59375 C 0.328125 -0.582031 0.382812 -0.5625 0.46875 -0.53125 C 0.582031 -0.488281 0.65625 -0.445312 0.6875 -0.40625 C 0.726562 -0.363281 0.75 -0.3125 0.75 -0.25 Z M 0.75 -0.25 "/></g></g><g transform="translate(14.948583, 2.924086)"><g/></g><g transform="translate(15.402911, 2.924086)"><g><path d="M 0.78125 -0.125 C 0.71875 -0.03125 0.617188 0.015625 0.484375 0.015625 C 0.359375 0.015625 0.257812 -0.0234375 0.1875 -0.109375 C 0.125 -0.191406 0.09375 -0.3125 0.09375 -0.46875 C 0.09375 -0.625 0.125 -0.742188 0.1875 -0.828125 C 0.257812 -0.910156 0.359375 -0.953125 0.484375 -0.953125 C 0.609375 -0.953125 0.707031 -0.90625 0.78125 -0.8125 L 0.796875 -0.8125 L 0.78125 -0.875 L 0.78125 -1.328125 L 0.921875 -1.328125 L 0.921875 0 L 0.8125 0 Z M 0.5 -0.109375 C 0.601562 -0.109375 0.675781 -0.132812 0.71875 -0.1875 C 0.757812 -0.238281 0.78125 -0.320312 0.78125 -0.4375 L 0.78125 -0.46875 C 0.78125 -0.601562 0.753906 -0.695312 0.703125 -0.75 C 0.660156 -0.800781 0.59375 -0.828125 0.5 -0.828125 C 0.414062 -0.828125 0.351562 -0.796875 0.3125 -0.734375 C 0.269531 -0.671875 0.25 -0.582031 0.25 -0.46875 C 0.25 -0.34375 0.269531 -0.25 0.3125 -0.1875 C 0.351562 -0.132812 0.414062 -0.109375 0.5 -0.109375 Z M 0.5 -0.109375 "/></g></g><g transform="translate(16.474682, 2.924086)"><g><path d="M 0.71875 0 L 0.703125 -0.140625 L 0.6875 -0.140625 C 0.644531 -0.078125 0.597656 -0.0351562 0.546875 -0.015625 C 0.503906 0.00390625 0.445312 0.015625 0.375 0.015625 C 0.28125 0.015625 0.207031 -0.00390625 0.15625 -0.046875 C 0.101562 -0.0976562 0.078125 -0.171875 0.078125 -0.265625 C 0.078125 -0.453125 0.226562 -0.550781 0.53125 -0.5625 L 0.6875 -0.5625 L 0.6875 -0.625 C 0.6875 -0.695312 0.671875 -0.75 0.640625 -0.78125 C 0.609375 -0.8125 0.5625 -0.828125 0.5 -0.828125 C 0.414062 -0.828125 0.328125 -0.804688 0.234375 -0.765625 L 0.1875 -0.875 C 0.226562 -0.894531 0.273438 -0.910156 0.328125 -0.921875 C 0.390625 -0.941406 0.445312 -0.953125 0.5 -0.953125 C 0.613281 -0.953125 0.695312 -0.925781 0.75 -0.875 C 0.800781 -0.820312 0.828125 -0.742188 0.828125 -0.640625 L 0.828125 0 Z M 0.40625 -0.09375 C 0.488281 -0.09375 0.554688 -0.117188 0.609375 -0.171875 C 0.660156 -0.222656 0.6875 -0.289062 0.6875 -0.375 L 0.6875 -0.453125 L 0.546875 -0.453125 C 0.429688 -0.453125 0.347656 -0.4375 0.296875 -0.40625 C 0.253906 -0.375 0.234375 -0.320312 0.234375 -0.25 C 0.234375 -0.207031 0.25 -0.171875 0.28125 -0.140625 C 0.3125 -0.109375 0.351562 -0.09375 0.40625 -0.09375 Z M 0.40625 -0.09375 "/></g></g><g transform="translate(17.447389, 2.924086)"><g><path d="M 0.796875 0 L 0.796875 -0.609375 C 0.796875 -0.679688 0.773438 -0.734375 0.734375 -0.765625 C 0.703125 -0.804688 0.648438 -0.828125 0.578125 -0.828125 C 0.472656 -0.828125 0.398438 -0.800781 0.359375 -0.75 C 0.316406 -0.695312 0.296875 -0.609375 0.296875 -0.484375 L 0.296875 0 L 0.15625 0 L 0.15625 -0.9375 L 0.265625 -0.9375 L 0.28125 -0.8125 L 0.296875 -0.8125 C 0.328125 -0.851562 0.367188 -0.882812 0.421875 -0.90625 C 0.472656 -0.9375 0.53125 -0.953125 0.59375 -0.953125 C 0.707031 -0.953125 0.789062 -0.925781 0.84375 -0.875 C 0.90625 -0.820312 0.9375 -0.734375 0.9375 -0.609375 L 0.9375 0 Z M 0.796875 0 "/></g></g><g transform="translate(18.520869, 2.924086)"><g><path d="M 0.75 -0.25 C 0.75 -0.164062 0.71875 -0.0976562 0.65625 -0.046875 C 0.59375 -0.00390625 0.503906 0.015625 0.390625 0.015625 C 0.265625 0.015625 0.164062 -0.00390625 0.09375 -0.046875 L 0.09375 -0.171875 C 0.132812 -0.148438 0.179688 -0.128906 0.234375 -0.109375 C 0.285156 -0.0976562 0.335938 -0.09375 0.390625 -0.09375 C 0.460938 -0.09375 0.519531 -0.101562 0.5625 -0.125 C 0.601562 -0.15625 0.625 -0.195312 0.625 -0.25 C 0.625 -0.28125 0.601562 -0.304688 0.5625 -0.328125 C 0.53125 -0.359375 0.472656 -0.390625 0.390625 -0.421875 C 0.296875 -0.460938 0.226562 -0.492188 0.1875 -0.515625 C 0.15625 -0.535156 0.128906 -0.5625 0.109375 -0.59375 C 0.0976562 -0.625 0.09375 -0.660156 0.09375 -0.703125 C 0.09375 -0.785156 0.125 -0.847656 0.1875 -0.890625 C 0.25 -0.929688 0.332031 -0.953125 0.4375 -0.953125 C 0.539062 -0.953125 0.640625 -0.929688 0.734375 -0.890625 L 0.6875 -0.78125 C 0.59375 -0.8125 0.503906 -0.828125 0.421875 -0.828125 C 0.359375 -0.828125 0.304688 -0.816406 0.265625 -0.796875 C 0.234375 -0.773438 0.21875 -0.75 0.21875 -0.71875 C 0.21875 -0.6875 0.222656 -0.660156 0.234375 -0.640625 C 0.253906 -0.628906 0.273438 -0.613281 0.296875 -0.59375 C 0.328125 -0.582031 0.382812 -0.5625 0.46875 -0.53125 C 0.582031 -0.488281 0.65625 -0.445312 0.6875 -0.40625 C 0.726562 -0.363281 0.75 -0.3125 0.75 -0.25 Z M 0.75 -0.25 "/></g></g><g transform="translate(19.355228, 2.924086)"><g/></g><g transform="translate(19.809556, 2.924086)"><g><path d="M 0.296875 0 L 0.15625 0 L 0.15625 -1.328125 L 0.296875 -1.328125 Z M 0.296875 0 "/></g></g><g transform="translate(20.251929, 2.924086)"><g><path d="M 0.546875 0.015625 C 0.410156 0.015625 0.300781 -0.0234375 0.21875 -0.109375 C 0.132812 -0.191406 0.09375 -0.304688 0.09375 -0.453125 C 0.09375 -0.609375 0.128906 -0.726562 0.203125 -0.8125 C 0.285156 -0.90625 0.390625 -0.953125 0.515625 -0.953125 C 0.628906 -0.953125 0.71875 -0.910156 0.78125 -0.828125 C 0.851562 -0.753906 0.890625 -0.65625 0.890625 -0.53125 L 0.890625 -0.4375 L 0.25 -0.4375 C 0.25 -0.332031 0.273438 -0.25 0.328125 -0.1875 C 0.378906 -0.132812 0.453125 -0.109375 0.546875 -0.109375 C 0.648438 -0.109375 0.75 -0.128906 0.84375 -0.171875 L 0.84375 -0.046875 C 0.800781 -0.0234375 0.753906 -0.0078125 0.703125 0 C 0.660156 0.0078125 0.609375 0.015625 0.546875 0.015625 Z M 0.5 -0.828125 C 0.425781 -0.828125 0.367188 -0.800781 0.328125 -0.75 C 0.285156 -0.707031 0.257812 -0.644531 0.25 -0.5625 L 0.734375 -0.5625 C 0.734375 -0.644531 0.710938 -0.707031 0.671875 -0.75 C 0.640625 -0.800781 0.582031 -0.828125 0.5 -0.828125 Z M 0.5 -0.828125 "/></g></g><g transform="translate(21.233176, 2.924086)"><g/></g><g transform="translate(21.687504, 2.924086)"><g><path d="M 0.53125 0.015625 C 0.394531 0.015625 0.285156 -0.0234375 0.203125 -0.109375 C 0.128906 -0.191406 0.09375 -0.3125 0.09375 -0.46875 C 0.09375 -0.625 0.128906 -0.742188 0.203125 -0.828125 C 0.285156 -0.910156 0.394531 -0.953125 0.53125 -0.953125 C 0.582031 -0.953125 0.628906 -0.945312 0.671875 -0.9375 C 0.710938 -0.925781 0.75 -0.914062 0.78125 -0.90625 L 0.734375 -0.78125 C 0.703125 -0.789062 0.664062 -0.800781 0.625 -0.8125 C 0.59375 -0.820312 0.5625 -0.828125 0.53125 -0.828125 C 0.34375 -0.828125 0.25 -0.707031 0.25 -0.46875 C 0.25 -0.351562 0.269531 -0.265625 0.3125 -0.203125 C 0.363281 -0.140625 0.429688 -0.109375 0.515625 -0.109375 C 0.597656 -0.109375 0.679688 -0.125 0.765625 -0.15625 L 0.765625 -0.03125 C 0.703125 0 0.625 0.015625 0.53125 0.015625 Z M 0.53125 0.015625 "/></g></g><g transform="translate(22.520155, 2.924086)"><g><path d="M 0.953125 -0.46875 C 0.953125 -0.3125 0.914062 -0.191406 0.84375 -0.109375 C 0.769531 -0.0234375 0.664062 0.015625 0.53125 0.015625 C 0.445312 0.015625 0.367188 0 0.296875 -0.03125 C 0.234375 -0.0703125 0.179688 -0.128906 0.140625 -0.203125 C 0.109375 -0.285156 0.09375 -0.375 0.09375 -0.46875 C 0.09375 -0.625 0.128906 -0.742188 0.203125 -0.828125 C 0.285156 -0.910156 0.394531 -0.953125 0.53125 -0.953125 C 0.664062 -0.953125 0.769531 -0.90625 0.84375 -0.8125 C 0.914062 -0.726562 0.953125 -0.613281 0.953125 -0.46875 Z M 0.25 -0.46875 C 0.25 -0.351562 0.269531 -0.265625 0.3125 -0.203125 C 0.363281 -0.140625 0.4375 -0.109375 0.53125 -0.109375 C 0.625 -0.109375 0.691406 -0.132812 0.734375 -0.1875 C 0.785156 -0.25 0.8125 -0.34375 0.8125 -0.46875 C 0.8125 -0.582031 0.785156 -0.671875 0.734375 -0.734375 C 0.691406 -0.796875 0.625 -0.828125 0.53125 -0.828125 C 0.4375 -0.828125 0.363281 -0.796875 0.3125 -0.734375 C 0.269531 -0.679688 0.25 -0.59375 0.25 -0.46875 Z M 0.25 -0.46875 "/></g></g><g transform="translate(23.576554, 2.924086)"><g><path d="M 0.578125 -0.953125 C 0.617188 -0.953125 0.65625 -0.945312 0.6875 -0.9375 L 0.671875 -0.8125 C 0.628906 -0.820312 0.59375 -0.828125 0.5625 -0.828125 C 0.488281 -0.828125 0.425781 -0.796875 0.375 -0.734375 C 0.320312 -0.671875 0.296875 -0.59375 0.296875 -0.5 L 0.296875 0 L 0.15625 0 L 0.15625 -0.9375 L 0.265625 -0.9375 L 0.28125 -0.765625 L 0.296875 -0.765625 C 0.328125 -0.828125 0.363281 -0.875 0.40625 -0.90625 C 0.457031 -0.9375 0.515625 -0.953125 0.578125 -0.953125 Z M 0.578125 -0.953125 "/></g></g><g transform="translate(24.290499, 2.924086)"><g><path d="M 0.59375 0.015625 C 0.53125 0.015625 0.472656 0.00390625 0.421875 -0.015625 C 0.367188 -0.0351562 0.328125 -0.0703125 0.296875 -0.125 L 0.28125 -0.125 C 0.289062 -0.0625 0.296875 -0.0078125 0.296875 0.03125 L 0.296875 0.421875 L 0.15625 0.421875 L 0.15625 -0.9375 L 0.265625 -0.9375 L 0.28125 -0.8125 L 0.296875 -0.8125 C 0.328125 -0.863281 0.367188 -0.898438 0.421875 -0.921875 C 0.472656 -0.941406 0.53125 -0.953125 0.59375 -0.953125 C 0.707031 -0.953125 0.796875 -0.910156 0.859375 -0.828125 C 0.929688 -0.742188 0.96875 -0.625 0.96875 -0.46875 C 0.96875 -0.3125 0.929688 -0.191406 0.859375 -0.109375 C 0.796875 -0.0234375 0.707031 0.015625 0.59375 0.015625 Z M 0.5625 -0.828125 C 0.46875 -0.828125 0.398438 -0.800781 0.359375 -0.75 C 0.316406 -0.695312 0.296875 -0.613281 0.296875 -0.5 L 0.296875 -0.46875 C 0.296875 -0.332031 0.316406 -0.238281 0.359375 -0.1875 C 0.398438 -0.132812 0.46875 -0.109375 0.5625 -0.109375 C 0.644531 -0.109375 0.707031 -0.140625 0.75 -0.203125 C 0.800781 -0.265625 0.828125 -0.351562 0.828125 -0.46875 C 0.828125 -0.582031 0.800781 -0.671875 0.75 -0.734375 C 0.707031 -0.796875 0.644531 -0.828125 0.5625 -0.828125 Z M 0.5625 -0.828125 "/></g></g><g transform="translate(25.36227, 2.924086)"><g><path d="M 0.75 -0.25 C 0.75 -0.164062 0.71875 -0.0976562 0.65625 -0.046875 C 0.59375 -0.00390625 0.503906 0.015625 0.390625 0.015625 C 0.265625 0.015625 0.164062 -0.00390625 0.09375 -0.046875 L 0.09375 -0.171875 C 0.132812 -0.148438 0.179688 -0.128906 0.234375 -0.109375 C 0.285156 -0.0976562 0.335938 -0.09375 0.390625 -0.09375 C 0.460938 -0.09375 0.519531 -0.101562 0.5625 -0.125 C 0.601562 -0.15625 0.625 -0.195312 0.625 -0.25 C 0.625 -0.28125 0.601562 -0.304688 0.5625 -0.328125 C 0.53125 -0.359375 0.472656 -0.390625 0.390625 -0.421875 C 0.296875 -0.460938 0.226562 -0.492188 0.1875 -0.515625 C 0.15625 -0.535156 0.128906 -0.5625 0.109375 -0.59375 C 0.0976562 -0.625 0.09375 -0.660156 0.09375 -0.703125 C 0.09375 -0.785156 0.125 -0.847656 0.1875 -0.890625 C 0.25 -0.929688 0.332031 -0.953125 0.4375 -0.953125 C 0.539062 -0.953125 0.640625 -0.929688 0.734375 -0.890625 L 0.6875 -0.78125 C 0.59375 -0.8125 0.503906 -0.828125 0.421875 -0.828125 C 0.359375 -0.828125 0.304688 -0.816406 0.265625 -0.796875 C 0.234375 -0.773438 0.21875 -0.75 0.21875 -0.71875 C 0.21875 -0.6875 0.222656 -0.660156 0.234375 -0.640625 C 0.253906 -0.628906 0.273438 -0.613281 0.296875 -0.59375 C 0.328125 -0.582031 0.382812 -0.5625 0.46875 -0.53125 C 0.582031 -0.488281 0.65625 -0.445312 0.6875 -0.40625 C 0.726562 -0.363281 0.75 -0.3125 0.75 -0.25 Z M 0.75 -0.25 "/></g></g><g transform="translate(26.196629, 2.924086)"><g/></g><g transform="translate(26.650958, 2.924086)"><g><path d="M 0.78125 -0.125 C 0.71875 -0.03125 0.617188 0.015625 0.484375 0.015625 C 0.359375 0.015625 0.257812 -0.0234375 0.1875 -0.109375 C 0.125 -0.191406 0.09375 -0.3125 0.09375 -0.46875 C 0.09375 -0.625 0.125 -0.742188 0.1875 -0.828125 C 0.257812 -0.910156 0.359375 -0.953125 0.484375 -0.953125 C 0.609375 -0.953125 0.707031 -0.90625 0.78125 -0.8125 L 0.796875 -0.8125 L 0.78125 -0.875 L 0.78125 -1.328125 L 0.921875 -1.328125 L 0.921875 0 L 0.8125 0 Z M 0.5 -0.109375 C 0.601562 -0.109375 0.675781 -0.132812 0.71875 -0.1875 C 0.757812 -0.238281 0.78125 -0.320312 0.78125 -0.4375 L 0.78125 -0.46875 C 0.78125 -0.601562 0.753906 -0.695312 0.703125 -0.75 C 0.660156 -0.800781 0.59375 -0.828125 0.5 -0.828125 C 0.414062 -0.828125 0.351562 -0.796875 0.3125 -0.734375 C 0.269531 -0.671875 0.25 -0.582031 0.25 -0.46875 C 0.25 -0.34375 0.269531 -0.25 0.3125 -0.1875 C 0.351562 -0.132812 0.414062 -0.109375 0.5 -0.109375 Z M 0.5 -0.109375 "/></g></g><g transform="translate(27.722729, 2.924086)"><g><path d="M 0.28125 -0.9375 L 0.28125 -0.328125 C 0.28125 -0.253906 0.296875 -0.195312 0.328125 -0.15625 C 0.367188 -0.125 0.425781 -0.109375 0.5 -0.109375 C 0.59375 -0.109375 0.660156 -0.132812 0.703125 -0.1875 C 0.753906 -0.238281 0.78125 -0.320312 0.78125 -0.4375 L 0.78125 -0.9375 L 0.921875 -0.9375 L 0.921875 0 L 0.8125 0 L 0.78125 -0.125 C 0.75 -0.0820312 0.707031 -0.046875 0.65625 -0.015625 C 0.601562 0.00390625 0.546875 0.015625 0.484375 0.015625 C 0.367188 0.015625 0.28125 -0.0078125 0.21875 -0.0625 C 0.164062 -0.113281 0.140625 -0.203125 0.140625 -0.328125 L 0.140625 -0.9375 Z M 0.28125 -0.9375 "/></g></g><g transform="translate(28.796208, 2.924086)"><g/></g><g transform="translate(29.250537, 2.924086)"><g><path d="M 0.453125 -0.09375 C 0.472656 -0.09375 0.492188 -0.09375 0.515625 -0.09375 C 0.546875 -0.101562 0.566406 -0.109375 0.578125 -0.109375 L 0.578125 -0.015625 C 0.566406 -0.00390625 0.546875 0 0.515625 0 C 0.484375 0.0078125 0.457031 0.015625 0.4375 0.015625 C 0.25 0.015625 0.15625 -0.078125 0.15625 -0.265625 L 0.15625 -0.828125 L 0.03125 -0.828125 L 0.03125 -0.890625 L 0.15625 -0.953125 L 0.21875 -1.15625 L 0.296875 -1.15625 L 0.296875 -0.9375 L 0.578125 -0.9375 L 0.578125 -0.828125 L 0.296875 -0.828125 L 0.296875 -0.28125 C 0.296875 -0.21875 0.3125 -0.171875 0.34375 -0.140625 C 0.375 -0.109375 0.410156 -0.09375 0.453125 -0.09375 Z M 0.453125 -0.09375 "/></g></g><g transform="translate(29.867979, 2.924086)"><g><path d="M 0.546875 0.015625 C 0.410156 0.015625 0.300781 -0.0234375 0.21875 -0.109375 C 0.132812 -0.191406 0.09375 -0.304688 0.09375 -0.453125 C 0.09375 -0.609375 0.128906 -0.726562 0.203125 -0.8125 C 0.285156 -0.90625 0.390625 -0.953125 0.515625 -0.953125 C 0.628906 -0.953125 0.71875 -0.910156 0.78125 -0.828125 C 0.851562 -0.753906 0.890625 -0.65625 0.890625 -0.53125 L 0.890625 -0.4375 L 0.25 -0.4375 C 0.25 -0.332031 0.273438 -0.25 0.328125 -0.1875 C 0.378906 -0.132812 0.453125 -0.109375 0.546875 -0.109375 C 0.648438 -0.109375 0.75 -0.128906 0.84375 -0.171875 L 0.84375 -0.046875 C 0.800781 -0.0234375 0.753906 -0.0078125 0.703125 0 C 0.660156 0.0078125 0.609375 0.015625 0.546875 0.015625 Z M 0.5 -0.828125 C 0.425781 -0.828125 0.367188 -0.800781 0.328125 -0.75 C 0.285156 -0.707031 0.257812 -0.644531 0.25 -0.5625 L 0.734375 -0.5625 C 0.734375 -0.644531 0.710938 -0.707031 0.671875 -0.75 C 0.640625 -0.800781 0.582031 -0.828125 0.5 -0.828125 Z M 0.5 -0.828125 "/></g></g><g transform="translate(30.849226, 2.924086)"><g><path d="M 0.375 -0.484375 L 0.046875 -0.9375 L 0.21875 -0.9375 L 0.453125 -0.578125 L 0.703125 -0.9375 L 0.859375 -0.9375 L 0.546875 -0.484375 L 0.875 0 L 0.71875 0 L 0.453125 -0.375 L 0.1875 0 L 0.03125 0 Z M 0.375 -0.484375 "/></g></g><g transform="translate(31.76557, 2.924086)"><g><path d="M 0.453125 -0.09375 C 0.472656 -0.09375 0.492188 -0.09375 0.515625 -0.09375 C 0.546875 -0.101562 0.566406 -0.109375 0.578125 -0.109375 L 0.578125 -0.015625 C 0.566406 -0.00390625 0.546875 0 0.515625 0 C 0.484375 0.0078125 0.457031 0.015625 0.4375 0.015625 C 0.25 0.015625 0.15625 -0.078125 0.15625 -0.265625 L 0.15625 -0.828125 L 0.03125 -0.828125 L 0.03125 -0.890625 L 0.15625 -0.953125 L 0.21875 -1.15625 L 0.296875 -1.15625 L 0.296875 -0.9375 L 0.578125 -0.9375 L 0.578125 -0.828125 L 0.296875 -0.828125 L 0.296875 -0.28125 C 0.296875 -0.21875 0.3125 -0.171875 0.34375 -0.140625 C 0.375 -0.109375 0.410156 -0.09375 0.453125 -0.09375 Z M 0.453125 -0.09375 "/></g></g><g transform="translate(32.383012, 2.924086)"><g><path d="M 0.546875 0.015625 C 0.410156 0.015625 0.300781 -0.0234375 0.21875 -0.109375 C 0.132812 -0.191406 0.09375 -0.304688 0.09375 -0.453125 C 0.09375 -0.609375 0.128906 -0.726562 0.203125 -0.8125 C 0.285156 -0.90625 0.390625 -0.953125 0.515625 -0.953125 C 0.628906 -0.953125 0.71875 -0.910156 0.78125 -0.828125 C 0.851562 -0.753906 0.890625 -0.65625 0.890625 -0.53125 L 0.890625 -0.4375 L 0.25 -0.4375 C 0.25 -0.332031 0.273438 -0.25 0.328125 -0.1875 C 0.378906 -0.132812 0.453125 -0.109375 0.546875 -0.109375 C 0.648438 -0.109375 0.75 -0.128906 0.84375 -0.171875 L 0.84375 -0.046875 C 0.800781 -0.0234375 0.753906 -0.0078125 0.703125 0 C 0.660156 0.0078125 0.609375 0.015625 0.546875 0.015625 Z M 0.5 -0.828125 C 0.425781 -0.828125 0.367188 -0.800781 0.328125 -0.75 C 0.285156 -0.707031 0.257812 -0.644531 0.25 -0.5625 L 0.734375 -0.5625 C 0.734375 -0.644531 0.710938 -0.707031 0.671875 -0.75 C 0.640625 -0.800781 0.582031 -0.828125 0.5 -0.828125 Z M 0.5 -0.828125 "/></g></g></g></g></g></g></svg>